<svg id="Layer_1" enable-background="new 0 0 512 512" height="512" viewBox="0 0 512 512" width="512" xmlns="http://www.w3.org/2000/svg"><g><path d="m506.903 256c0 72.958-31.27 138.613-81.14 184.293-44.453 40.718-98.81 45.66-163.844 45.66-137.992 0-226.828-91.275-226.828-229.268 0-80.602 10.263-152.976 69.509-198.664 42.184-32.53 95.055-51.879 152.445-51.879 137.994.001 249.858 111.866 249.858 249.858z" fill="#ffe046"/><path d="m387.449 321.932 33.803-104.63c.717-1.493 1.395-3.002 2.032-4.524 7.237-17.293 23.879-28.77 42.625-28.77h.446c10.004 0 19.542-1.976 28.268-5.534-12.204-37.422-32.994-70.961-60.057-98.285-4.899.766-29.097-4.404-48.071 16.531-56.348-42.767-146.206-42.997-202.908-.532-9.181-9.839-22.255-15.999-36.773-15.999h-22.168c-6.035 0-10.051-6.224-7.587-11.733.062-.139.125-.278.187-.417 3.543-7.883-5.799-15.292-12.643-10.014-58.63 45.211-96.618 115.884-97.402 195.462-1.363 138.326 111.009 252.097 249.342 252.37 65.233.129 124.649-24.746 169.213-65.572 12.967-11.88 1.413-33.146-15.572-28.586-.327.088-.654.175-.982.262-12.46 3.291-23.718-8.012-20.517-20.494 3.042-11.86 2.804-24.752-1.341-37.739-3.301-10.342-3.232-21.467.105-31.796zm-249.247-137.929c.33.001.662.003.998.004.856 12.141 4.169 23.773 9.565 34.599l39.075 121.508c-3.112 5.788-5.562 11.951-7.129 18.283-38.175-33.43-66.085-78.294-78.374-129.249-5.566-23.081 12.122-45.241 35.865-45.145z" fill="#fcb54c"/><g><path d="m117.521 80.188h-48.666l-11.507 101.723c5.644 1.358 11.529 2.096 17.589 2.096h92.882v-53.521c0-27.779-22.519-50.298-50.298-50.298z" fill="#fff5aa"/><path d="m70.552 80.188h-70.552v28.882c0 35.92 25.279 65.922 59.013 73.225 15.325-14.549 24.896-35.1 24.896-57.899 0-16.352-4.923-31.549-13.357-44.208z" fill="#a55a3c"/><path d="m167.819 174.592-49.466-11.119c-24.398 0-41.338-7.833-41.338-32.231l-8.127-17.852h69.28c16.376 0 29.651 13.275 29.651 29.651z" fill="#ff965a"/><path d="m128.086 148.245c-16.537 0-30.946-9.088-38.516-22.542-4.232-7.522-12.051-12.314-20.682-12.314v17.026c0 24.398 19.778 44.176 44.176 44.176h54.755v-26.347h-39.733z" fill="#ff640a"/><path d="m344.181 184.007h92.882c41.386 0 74.937-33.55 74.937-74.937v-28.882l-118.353 9.964c-27.779 0-49.466 12.555-49.466 40.333z" fill="#fff"/><path d="m511.233 80.188h-116.754c-16.928 0-31.891 8.371-41.007 21.19v16.265h92.882c27.727.001 51.919-15.069 64.879-37.455z" fill="#a55a3c"/><path d="m426.177 165.173c10.307-8.084 16.935-20.641 16.935-34.757v-17.026h-43.475v51.784h26.54z" fill="#ff965a"/><path d="m429.076 162.699c-15.441 0-27.959-12.518-27.959-27.959v-3.593c0-6.661 2.197-12.808 5.904-17.758h-33.19c-16.376 0-29.651 13.275-29.651 29.651v31.551h54.755c11.655.001 22.248-4.519 30.141-11.892z" fill="#ff640a"/><path d="m255.398 64.49c-49.23 0-92.759 18.971-119.139 48.018-16.745 18.437 30.106 251.911 30.106 251.911h178.066l30.228-251.778c-26.369-29.122-69.955-48.151-119.261-48.151z" fill="#fff"/><path d="m255.926 64.491c-.176 0-.352-.001-.529-.001-49.23 0-92.759 18.971-119.139 48.018l30.106 251.911h60.997l-44.82-139.374c-6.321-12.682-9.796-26.466-9.796-40.882 0-45.975 35.263-85.546 85.918-103.281 8.903-3.116 6.696-16.365-2.737-16.391z" fill="#fff5aa"/><g fill="#a55a3c"><path d="m221.439 242.131c0-40.596-18.904-78.878-51.137-103.557l-34.04-26.063c-16.744 18.437-26.584 40.931-26.584 65.213 0 14.416 3.474 28.2 9.795 40.882l46.891 145.813h55.074v-122.288z"/><path d="m289.357 242.131v122.289h55.074l47.53-147.118c5.916-12.321 9.157-25.654 9.157-39.577 0-24.282-9.84-46.776-26.584-65.213l-34.04 26.063c-32.234 24.678-51.137 62.959-51.137 103.556z"/></g><path d="m255.398 285.287c-14.608 0-28.524 2.751-41.187 7.586-7.401 2.826-12.208 10.029-12.208 17.951v106.804h120.097c7.523 0 11.663 5.225 12.45 10.997 8.967-6.847 16.306-15.852 21.085-26.55 3.783-8.47 5.839-17.568 5.839-27.039-.001-45.522-47.492-89.749-106.076-89.749z" fill="#fff"/><g><g><g><path d="m174.219 210.145c-.238 0-.461-.024-.692-.034v8.93c0 5.144 4.171 9.314 9.314 9.314s9.314-4.171 9.314-9.314v-8.896z" fill="#fff"/></g></g><g><g><path d="m182.842 220.895c-5.144 0-9.314-4.171-9.314-9.314v-25.474c0-5.144 4.171-9.314 9.314-9.314 5.144 0 9.314 4.171 9.314 9.314v25.474c0 5.143-4.171 9.314-9.314 9.314z" fill="#373c41"/></g></g><path d="m176.961 203.033c-1.896 0-3.434-1.537-3.434-3.434v-10.399c0-1.896 1.537-3.434 3.434-3.434 1.896 0 3.434 1.537 3.434 3.434v10.399c0 1.896-1.538 3.434-3.434 3.434z" fill="#fff"/></g><g><g><g><path d="m318.64 210.145v8.896c0 5.144 4.171 9.314 9.314 9.314 5.144 0 9.314-4.171 9.314-9.314v-8.896z" fill="#fff"/></g></g><g><g><path d="m327.954 220.895c-5.144 0-9.314-4.171-9.314-9.314v-25.474c0-5.144 4.171-9.314 9.314-9.314s9.314 4.171 9.314 9.314v25.474c.001 5.143-4.17 9.314-9.314 9.314z" fill="#373c41"/></g></g><path d="m321.9 203.033c-1.896 0-3.434-1.537-3.434-3.434v-10.399c0-1.896 1.537-3.434 3.434-3.434 1.896 0 3.434 1.537 3.434 3.434v10.399c-.001 1.896-1.538 3.434-3.434 3.434z" fill="#fff"/></g><g fill="#fff5aa"><path d="m274.297 414.457c-13.422 0-26.349-3.717-37.405-10.421-7.519-4.559-10.188-14.16-6.172-21.982 6.858-13.36-.447-32.456-18.595-31.73v.017l-.095-.003c-4.73-.125-8.493-4.137-8.162-8.857 1.036-14.745 6.922-28.76 15.768-40.839 2.932-4.004-1.112-9.427-5.744-7.643-37.955 14.616-64.567 47.962-64.567 82.038 0 9.471 2.056 18.569 5.839 27.039 11.325 25.353 36.993 41.248 64.76 41.248h70.951c15.815 0 30.945-5.16 43.133-14.286 6.215-4.653 2.812-14.578-4.952-14.582-10.48-.005-27.313-.011-54.759.001zm-62.229-42.604c.034-.001.069-.002.104-.003 5.24-.185 9.367 4.356 8.258 9.481-.013.06-.026.121-.04.181-.624 2.758-4.23 3.393-5.774 1.024-1.683-2.583-3.121-5.185-4.38-7.849-.626-1.324.368-2.797 1.832-2.834z"/><path d="m290.24 391.887c2.202 1.05 4.343-1.442 3.035-3.5-.014-.022-.028-.045-.043-.067-1.305-2.071-2.219-4.276-2.762-6.53-1.257-5.219 2.971-10.031 8.338-9.935.054.001.108.002.161.002 5.607.018 10.418-4.467 10.778-10.063.403-6.246-4.605-11.651-11.077-11.453v-.017c-18.28-.731-26.469 19.256-17.496 33.495 2.288 3.627 5.464 6.351 9.066 8.068z"/></g><g fill="#ff965a"><path d="m212.123 339.862v.017c-6.472-.199-11.479 5.206-11.077 11.453.361 5.596 5.171 10.081 10.778 10.063.054 0 .108-.001.161-.002 5.368-.096 9.596 4.716 8.338 9.935-.543 2.254-1.457 4.459-2.762 6.53-.014.022-.028.045-.042.067-1.307 2.059.834 4.55 3.035 3.5 3.603-1.717 6.778-4.441 9.064-8.068 8.974-14.238.786-34.225-17.495-33.495z"/><path d="m298.673 339.862v.017c6.472-.199 11.479 5.206 11.077 11.453-.361 5.596-5.171 10.081-10.778 10.063-.054 0-.108-.001-.161-.002-5.368-.096-9.596 4.716-8.338 9.935.543 2.254 1.457 4.459 2.762 6.53.014.022.028.045.042.067 1.307 2.059-.834 4.55-3.035 3.5-3.603-1.717-6.778-4.441-9.064-8.068-8.974-14.238-.786-34.225 17.495-33.495z"/></g></g></g></svg>